<svg width="124" height="48" viewBox="0 0 124 48" fill="none" xmlns="http://www.w3.org/2000/svg">
<path d="M23.5187 47.0373C36.5077 47.0373 47.0373 36.5077 47.0373 23.5187C47.0373 10.5297 36.5077 0 23.5187 0C10.5297 0 0 10.5297 0 23.5187C0 36.5077 10.5297 47.0373 23.5187 47.0373Z" fill="#0E9681"/>
<path d="M37.5801 6.51227C37.5596 6.36687 37.4904 6.23272 37.3838 6.13175C37.2772 6.03077 37.1395 5.96893 36.9932 5.95634C36.1665 5.86127 34.5132 6.16301 33.1719 7.12607C33.1107 7.17905 33.033 7.20922 32.952 7.21148C32.871 7.21374 32.7918 7.18795 32.7276 7.13847C32.2793 6.87642 31.8155 6.64177 31.3388 6.43581C29.7587 5.78704 28.0721 5.43668 26.3643 5.40247C26.3084 5.40996 26.2517 5.39749 26.204 5.36725C26.1564 5.33701 26.121 5.29094 26.1039 5.23714C25.7572 4.24484 25.1922 3.34298 24.4506 2.59801C24.1674 2.30776 23.8218 2.08584 23.44 1.94907C23.3392 1.91199 23.2302 1.90336 23.1248 1.92414C23.0195 1.94492 22.9219 1.9943 22.8427 2.06687C22.2955 2.55665 21.8035 3.10482 21.3754 3.70161C20.5883 4.77631 19.9617 5.95982 19.5154 7.21494C19.472 7.32654 19.4307 7.40301 19.2839 7.42161C18.5833 7.53114 17.8765 7.62827 17.1863 7.78534C14.1907 8.49026 11.4196 9.93479 9.12628 11.9869C6.88643 13.9504 5.1705 16.4404 4.13321 19.2326C3.13497 21.9071 2.76816 24.776 3.06141 27.6156C3.35465 30.4552 4.30002 33.1887 5.82375 35.6027C7.59559 38.4437 10.125 40.734 13.1273 42.216C14.7458 43.0279 16.4759 43.5949 18.2609 43.8983C24.5271 44.8593 26.1556 37.7272 14.2805 37.9938C12.9269 38.0227 11.6455 38.279 10.1844 37.2746C10.0736 37.1853 9.98654 37.0701 9.931 36.9391C9.87545 36.8081 9.85312 36.6654 9.86601 36.5236C9.87889 36.3819 9.92658 36.2456 10.0048 36.1267C10.0831 36.0079 10.1895 35.9102 10.3146 35.8424C10.8029 35.5488 11.3247 35.315 11.8687 35.1459C12.5714 34.9 13.2947 34.7161 13.9995 34.4577C13.4849 34.4887 12.9661 34.5321 12.4536 34.5466C10.5109 34.6024 8.25621 34.7181 7.01001 33.1723C6.70144 32.6972 6.42858 32.1998 6.19368 31.6843C4.86688 29.5019 10.0191 29.3283 11.3913 29.0203C15.7499 28.2247 14.171 25.7447 19.0669 24.1368C19.0068 22.4346 19.473 20.7553 20.402 19.3277C20.4538 19.2465 20.5258 19.1801 20.6109 19.1351C20.696 19.0901 20.7914 19.0679 20.8876 19.0708C20.9839 19.0738 21.0777 19.1016 21.16 19.1517C21.2422 19.2018 21.3101 19.2724 21.3568 19.3566C21.902 20.2983 22.6503 21.1066 23.5473 21.7226C24.4443 22.3386 25.4674 22.7468 26.5421 22.9175C31.469 23.7751 35.1766 18.5651 36.3277 15.7027C37.1667 13.6147 37.6555 11.4026 37.7744 9.15554C37.8378 8.26969 37.7724 7.37933 37.5801 6.51227Z" fill="white"/>
<path d="M28.6109 33.8381C28.426 34.7916 28.0658 35.7026 27.5486 36.5247C26.7093 37.854 25.4739 38.8862 24.0167 39.4759C23.4771 39.6928 22.9139 39.8454 22.3386 39.9306C23.5972 41.1582 23.2293 42.6565 21.793 43.4439C22.0823 43.3675 22.3716 43.2807 22.6527 43.1815C23.6142 42.8333 24.5194 42.3459 25.3394 41.7348C26.1388 41.1415 26.8433 40.43 27.4288 39.6247C27.9968 38.8449 28.4376 37.9799 28.7349 37.0621C29.0226 36.1758 29.1671 35.2493 29.1627 34.3175C29.1627 34.1687 29.1627 34.022 29.1503 33.8753C29.1409 33.813 29.1105 33.7557 29.0642 33.713C29.0179 33.6703 28.9584 33.6446 28.8955 33.6403C28.8327 33.636 28.7702 33.6532 28.7184 33.6892C28.6667 33.7251 28.6288 33.7776 28.6109 33.8381Z" fill="#68BCAE"/>
<path d="M25.5999 16.163L23.2624 15.6484C23.1814 15.6293 23.1071 15.5886 23.0475 15.5306C22.9878 15.4725 22.9451 15.3993 22.9239 15.3188C22.9026 15.2384 22.9037 15.1536 22.9269 15.0737C22.9502 14.9938 22.9947 14.9217 23.0558 14.8651C23.2912 14.6749 23.5663 14.5402 23.8609 14.4708C24.1555 14.4013 24.4619 14.3991 24.7574 14.4642C25.0529 14.5293 25.33 14.6601 25.5682 14.8468C25.8063 15.0336 25.9994 15.2715 26.1331 15.543C26.1652 15.6213 26.1751 15.707 26.1616 15.7905C26.1481 15.8741 26.1117 15.9523 26.0565 16.0164C26.0013 16.0806 25.9294 16.1283 25.8488 16.1541C25.7683 16.18 25.6821 16.1831 25.5999 16.163Z" fill="#0E9681"/>
<path d="M32.6635 17.7176L30.3261 17.203C30.2447 17.1851 30.1697 17.1454 30.1092 17.0881C30.0486 17.0307 30.0049 16.958 29.9826 16.8777C29.9602 16.7974 29.9602 16.7125 29.9825 16.6322C30.0048 16.5519 30.0486 16.4791 30.1091 16.4218C30.3447 16.2316 30.62 16.0968 30.9147 16.0274C31.2094 15.958 31.516 15.9558 31.8117 16.0208C32.1073 16.0859 32.3846 16.2167 32.6229 16.4034C32.8613 16.5902 33.0545 16.8281 33.1884 17.0997C33.2193 17.1771 33.2285 17.2615 33.215 17.3438C33.2015 17.426 33.1659 17.5031 33.1119 17.5666C33.058 17.6301 32.9877 17.6778 32.9087 17.7044C32.8297 17.731 32.7449 17.7355 32.6635 17.7176Z" fill="#0E9681"/>
<path d="M21.0593 7.77904C21.237 6.8883 22.7436 3.2923 23.8514 4.6687C24.4342 5.2453 25.2836 7.0247 25.1699 7.8555C25.2381 9.22157 24.7359 9.24017 24.3432 9.37657C22.9751 9.4985 20.7307 9.4179 21.0593 7.77904Z" fill="#D1E9E3"/>
<path d="M36.1667 11.3281C35.4888 13.372 33.0129 10.7949 32.6533 9.76364C32.24 8.21984 34.7841 7.82304 35.96 7.76931C36.0616 7.76299 36.1617 7.79661 36.2389 7.86301C36.3161 7.92941 36.3644 8.02334 36.3733 8.12478C36.4333 9.00518 36.2927 10.3237 36.1667 11.3281Z" fill="#D1E9E3"/>
<path d="M18.3933 29.1999L16.461 28.7122C16.1654 28.6357 16.089 28.1914 16.3308 27.9392C16.5159 27.7485 16.7481 27.6098 17.0038 27.5372C17.2595 27.4645 17.5299 27.4604 17.7877 27.5254C18.0455 27.5903 18.2817 27.7219 18.4725 27.907C18.6634 28.0921 18.8021 28.3242 18.8748 28.5799C18.9616 28.9188 18.6826 29.2722 18.3933 29.1999Z" fill="white"/>
<path d="M28.4956 20.8566C27.6958 20.8318 27.4622 20.0568 27.1109 20.1684C26.7998 20.3308 26.4434 20.3846 26.0982 20.3213C25.3976 20.2407 24.8789 18.9821 25.2716 18.9883C25.3452 18.9773 25.4204 18.9918 25.4847 19.0294C25.5489 19.067 25.5984 19.1254 25.625 19.195C25.6695 19.335 25.7461 19.4627 25.8487 19.5678C25.9513 19.673 26.0771 19.7526 26.216 19.8005C27.0427 20.032 27.5903 18.8664 26.8918 18.3766C26.5054 17.8599 27.4085 17.2399 27.9065 17.428C28.1428 17.4876 28.3459 17.6381 28.4717 17.8467C28.5975 18.0553 28.6358 18.3052 28.5782 18.5419C28.3715 18.8788 27.7516 18.8209 27.7102 19.3438C27.4808 20.1704 28.6443 20.7161 29.1341 20.0196C29.1542 19.9899 29.1802 19.9648 29.2105 19.9458C29.2409 19.9268 29.2749 19.9144 29.3103 19.9093C29.3457 19.9042 29.3818 19.9066 29.4163 19.9164C29.4507 19.9261 29.4827 19.943 29.5103 19.9659C29.9174 20.3854 28.8965 20.869 28.4956 20.8566Z" fill="#0E9681"/>
<path d="M8.07263 30.5269C8.0729 30.2129 7.97856 29.9061 7.80189 29.6465C6.49989 30.002 5.52856 30.5909 6.19816 31.6863L6.36556 32.0293C6.44589 32.0455 6.5275 32.0545 6.60943 32.0562C6.80593 32.0519 6.99967 32.009 7.17957 31.9298C7.35946 31.8506 7.52199 31.7367 7.65787 31.5947C7.79375 31.4527 7.90032 31.2853 7.97148 31.1021C8.04265 30.9188 8.07702 30.7234 8.07263 30.5269Z" fill="#68BCAE"/>
<path d="M21.4836 23.2008C21.5394 21.9385 21.2676 20.9013 20.8765 20.884C20.4853 20.8667 20.1231 21.876 20.0673 23.1383C20.0115 24.4005 20.2834 25.4378 20.6745 25.4551C21.0656 25.4724 21.4279 24.4631 21.4836 23.2008Z" fill="#68BCAE"/>
<path d="M58.2617 17.9058C57.8617 17.9205 57.4688 17.7964 57.1499 17.5544C57.0069 17.4461 56.8881 17.309 56.8013 17.1521C56.7144 16.9951 56.6614 16.8217 56.6456 16.643C56.6201 16.231 56.7566 15.8254 57.0259 15.5126L60.4648 10.9659L57.1395 6.58042C56.8714 6.26338 56.7385 5.85368 56.7696 5.43962C56.789 5.26184 56.8435 5.0897 56.9301 4.93322C57.0167 4.77675 57.1335 4.63907 57.2739 4.52822C57.5862 4.28014 57.9768 4.15186 58.3754 4.16655C58.7168 4.15974 59.0529 4.25237 59.3426 4.43315C59.6743 4.66578 59.9584 4.95971 60.1796 5.29908L62.4385 8.44042L64.7118 5.28875C64.9289 4.94611 65.2137 4.65145 65.5488 4.42282C65.841 4.24885 66.176 4.16008 66.516 4.16655C66.9195 4.14972 67.3163 4.27395 67.6382 4.51788C67.7787 4.62819 67.895 4.7662 67.98 4.92333C68.065 5.08046 68.1167 5.25338 68.1321 5.43135C68.1552 5.84867 68.0193 6.25923 67.7518 6.58042L64.4349 10.968L67.8531 15.5146C67.9917 15.6665 68.0976 15.8452 68.1645 16.0396C68.2313 16.234 68.2576 16.4401 68.2417 16.6451C68.224 16.8231 68.1704 16.9957 68.0841 17.1523C67.9978 17.309 67.8805 17.4465 67.7394 17.5565C67.418 17.8012 67.0209 17.9255 66.6173 17.9078C66.2797 17.9159 65.9469 17.8269 65.6583 17.6515C65.3248 17.4193 65.038 17.1262 64.8131 16.7877L62.4385 13.512L60.0845 16.7794C59.8585 17.1205 59.5678 17.414 59.2289 17.6433C58.9377 17.8201 58.6024 17.9111 58.2617 17.9058Z" fill="white"/>
<path d="M72.3331 17.7299C71.1179 17.7299 70.5103 17.1278 70.5103 15.9236V6.14209C70.5103 4.93929 71.1179 4.33789 72.3331 4.33789H76.9665C78.4118 4.33789 79.5299 4.65133 80.3207 5.27822C80.7039 5.57365 81.0113 5.95599 81.2176 6.39367C81.4239 6.83136 81.5231 7.31184 81.507 7.79542C81.5218 8.44202 81.3394 9.07781 80.9841 9.61822C80.6303 10.1421 80.1258 10.5464 79.5374 10.7776C80.2232 10.9634 80.8301 11.3666 81.2672 11.9267C81.6863 12.5084 81.9 13.2128 81.8748 13.9293C81.8748 15.1073 81.4539 16.0352 80.6121 16.7131C79.7703 17.391 78.6205 17.7299 77.1628 17.7299H72.3331ZM73.8521 9.65749H76.3321C76.9665 9.65749 77.4315 9.54176 77.7291 9.31442C77.8798 9.18961 77.9987 9.03092 78.0763 8.85133C78.1539 8.67174 78.1879 8.47633 78.1755 8.28109C78.1908 8.08552 78.1582 7.88917 78.0804 7.70909C78.0026 7.52901 77.882 7.37064 77.7291 7.24776C77.4315 7.02731 76.9658 6.9164 76.3321 6.91502H73.8521V9.65749ZM73.8521 15.1652H76.6834C77.3282 15.1652 77.7994 15.0418 78.097 14.7952C78.2511 14.6561 78.3714 14.4836 78.4488 14.2909C78.5262 14.0982 78.5585 13.8904 78.5434 13.6834C78.5594 13.4777 78.5274 13.2712 78.45 13.08C78.3725 12.8888 78.2517 12.7183 78.097 12.5818C77.7994 12.3421 77.3282 12.2202 76.6834 12.2202H73.8521V15.1652Z" fill="white"/>
<path d="M90.5325 17.9382C89.2902 17.9665 88.0621 17.6701 86.9695 17.0784C85.9621 16.5127 85.1358 15.6728 84.5867 14.6563C83.9974 13.5391 83.7029 12.29 83.7311 11.0272C83.7014 9.76288 83.9922 8.51158 84.5763 7.38989C85.1238 6.37613 85.9518 5.54165 86.9613 4.98636C88.0662 4.42525 89.288 4.13281 90.5273 4.13281C91.7666 4.13281 92.9884 4.42525 94.0933 4.98636C95.0998 5.5437 95.927 6.37589 96.4783 7.38576C97.0709 8.50491 97.3676 9.757 97.3401 11.0231C97.3682 12.2856 97.0744 13.5345 96.4865 14.6522C95.935 15.6715 95.105 16.513 94.0933 17.0784C93.0015 17.6701 91.774 17.9665 90.5325 17.9382ZM90.5325 15.0118C90.9759 15.0315 91.4178 14.9464 91.8221 14.7633C92.2265 14.5801 92.5819 14.3041 92.8595 13.9578C93.4217 13.2551 93.7034 12.2769 93.7048 11.0231C93.7062 9.76931 93.4272 8.79453 92.8678 8.09876C92.3167 7.40298 91.5382 7.0544 90.5325 7.05302C89.5267 7.05165 88.7476 7.40022 88.1951 8.09876C87.644 8.79591 87.3684 9.77069 87.3684 11.0231C87.3684 12.2755 87.644 13.2537 88.1951 13.9578C88.7531 14.6604 89.5322 15.0118 90.5325 15.0118Z" fill="white"/>
<path d="M106.392 17.9386C104.904 17.9386 103.632 17.652 102.575 17.0789C101.539 16.5367 100.689 15.6967 100.134 14.6671C99.5494 13.5419 99.2586 12.2871 99.2888 11.0194C99.2581 9.75495 99.549 8.50341 100.134 7.38207C100.691 6.35617 101.54 5.5194 102.575 4.97853C103.64 4.41089 104.912 4.12638 106.392 4.125C107.002 4.13062 107.61 4.19988 108.206 4.33167C108.784 4.44941 109.341 4.65134 109.86 4.931C110.178 5.08511 110.439 5.33812 110.602 5.65227C110.737 5.92898 110.79 6.23914 110.753 6.54507C110.719 6.84588 110.604 7.13182 110.42 7.37173C110.249 7.59693 110.011 7.76195 109.74 7.84293C109.432 7.92216 109.105 7.87766 108.829 7.71893C108.115 7.35642 107.327 7.16469 106.526 7.15887C105.348 7.15887 104.462 7.4916 103.866 8.15707C103.271 8.82253 102.974 9.77802 102.974 11.0235C102.974 12.2787 103.271 13.2383 103.866 13.9024C104.462 14.5665 105.348 14.8985 106.526 14.8985C106.884 14.8952 107.24 14.8536 107.589 14.7745C107.975 14.6929 108.351 14.5645 108.707 14.3922C109.021 14.235 109.379 14.1884 109.723 14.2599C110.01 14.3282 110.267 14.4878 110.455 14.7146C110.644 14.9397 110.765 15.2132 110.806 15.5041C110.849 15.804 110.806 16.1101 110.682 16.3865C110.538 16.6964 110.29 16.9453 109.98 17.0892C109.468 17.3805 108.913 17.5897 108.337 17.7092C107.699 17.8603 107.047 17.9373 106.392 17.9386Z" fill="white"/>
<path d="M117.637 17.9056C117.402 17.9207 117.166 17.8882 116.944 17.8101C116.723 17.732 116.519 17.6098 116.345 17.4509C116.185 17.2742 116.063 17.0671 115.984 16.842C115.906 16.6169 115.874 16.3784 115.89 16.1406V7.18783H112.906C111.942 7.18783 111.459 6.71249 111.459 5.76183C111.459 4.81116 111.942 4.33652 112.906 4.33789H122.367C123.332 4.33789 123.814 4.81254 123.814 5.76183C123.814 6.71112 123.332 7.18645 122.367 7.18783H119.385V16.1344C119.401 16.3715 119.37 16.6093 119.293 16.8342C119.216 17.0591 119.096 17.2666 118.939 17.4447C118.641 17.7519 118.207 17.9056 117.637 17.9056Z" fill="white"/>
<path d="M61.2416 40.6924C60.8733 40.706 60.5106 40.5994 60.2083 40.3886C59.933 40.1916 59.7455 39.895 59.6854 39.5619C59.6283 39.1503 59.7121 38.7315 59.9231 38.3736L60.911 36.4371L56.5048 29.2038C56.2919 28.8851 56.1976 28.5019 56.2382 28.1208C56.2625 27.9562 56.3197 27.7982 56.4063 27.6562C56.493 27.5142 56.6073 27.3911 56.7425 27.2942C57.0604 27.0684 57.4441 26.9543 57.8337 26.9697C58.2083 26.9423 58.5788 27.0616 58.867 27.3024C59.1431 27.5803 59.3771 27.8971 59.5614 28.2428L62.5436 33.2586L65.0505 28.2614C65.2135 27.9357 65.4223 27.6351 65.6705 27.3686C65.9185 27.104 66.2905 26.9697 66.801 26.9697C67.1677 26.9589 67.5287 27.0622 67.8343 27.2652C67.9726 27.3584 68.0903 27.4789 68.1802 27.6193C68.2701 27.7597 68.3303 27.917 68.3572 28.0816C68.408 28.4999 68.3217 28.9234 68.1112 29.2885L63.0004 39.4152C62.835 39.7363 62.6264 40.0332 62.3804 40.2976C62.2287 40.4394 62.049 40.5478 61.8529 40.6158C61.6567 40.6838 61.4485 40.7099 61.2416 40.6924Z" fill="white"/>
<path d="M69.3345 44.0176C68.3219 44.0176 67.8149 43.5044 67.8135 42.4779V39.3635C67.8135 38.4149 68.2578 37.9003 69.1444 37.8259C70.2205 36.4949 70.7585 34.1141 70.7585 30.6835V28.9351C70.7585 27.7323 71.3599 27.1309 72.5627 27.1309H79.1161C80.3313 27.1309 80.9389 27.7323 80.9389 28.9351V37.8217H81.282C82.3194 37.8217 82.8389 38.3343 82.8402 39.3593V42.4779C82.8402 43.5057 82.3394 44.019 81.3378 44.0176C80.3361 44.0162 79.8298 43.503 79.8188 42.4779V40.5229H70.8349V42.4779C70.8349 43.5057 70.3348 44.019 69.3345 44.0176ZM72.6206 37.8176H77.4442V29.8196H73.968V31.0596C73.987 32.4033 73.8728 33.7456 73.627 35.0669C73.4531 36.0377 73.1126 36.9711 72.6206 37.8259V37.8176Z" fill="white"/>
<path d="M85.0988 40.6924C84.5036 40.6924 84.0655 40.4858 83.7886 40.0848C83.5116 39.6839 83.5096 39.1734 83.7886 38.5658L88.5171 28.3854C88.6943 27.9561 88.9833 27.5822 89.3541 27.3025C89.6956 27.0706 90.1008 26.9507 90.5135 26.9594C90.9195 26.9528 91.3175 27.0727 91.6522 27.3025C92.0194 27.5834 92.3048 27.9572 92.4789 28.3854L97.2178 38.572C97.5085 39.192 97.5209 39.7018 97.255 40.1014C96.9904 40.5002 96.5709 40.6986 96.0026 40.6986C95.5853 40.7266 95.1716 40.6058 94.8349 40.3576C94.5089 40.0522 94.2584 39.6751 94.1033 39.2561L93.4957 37.8094H87.5024L86.8948 39.2561C86.7322 39.6644 86.4938 40.0381 86.1921 40.3576C85.9579 40.5808 85.5934 40.6924 85.0988 40.6924ZM90.4722 30.7724L88.6597 35.129H92.3446L90.5197 30.7786L90.4722 30.7724Z" fill="white"/>
<path d="M107.893 40.6927C107.655 40.709 107.416 40.6771 107.191 40.599C106.966 40.5208 106.759 40.3981 106.582 40.238C106.279 39.9342 106.126 39.4899 106.126 38.9092V35.8092C105.774 35.9447 105.408 36.0404 105.034 36.0944C104.586 36.1703 104.132 36.2084 103.677 36.208C101.879 36.208 100.489 35.7334 99.5061 34.7841C98.5238 33.8348 98.0333 32.3847 98.0347 30.4338V28.7432C98.0347 28.1625 98.1855 27.7099 98.4914 27.4144C98.6648 27.2551 98.8686 27.1325 99.0906 27.0541C99.3126 26.9756 99.5481 26.9428 99.7831 26.9576C100.016 26.9427 100.249 26.9753 100.469 27.0534C100.688 27.1316 100.889 27.2537 101.06 27.4123C101.358 27.7161 101.507 28.1604 101.507 28.7412V30.318C101.507 31.3817 101.725 32.1395 102.162 32.5914C102.599 33.0433 103.248 33.2713 104.109 33.2754C104.455 33.274 104.801 33.2422 105.142 33.1804C105.478 33.1237 105.806 33.028 106.119 32.8952V28.7453C106.119 28.1646 106.272 27.712 106.576 27.4164C106.753 27.2561 106.96 27.1331 107.185 27.0546C107.41 26.9761 107.649 26.9438 107.886 26.9597C108.12 26.9442 108.354 26.9767 108.574 27.0553C108.795 27.1338 108.997 27.2568 109.168 27.4164C109.465 27.7202 109.614 28.1646 109.614 28.7453V38.9092C109.614 39.4899 109.465 39.9425 109.168 40.238C108.997 40.3966 108.796 40.5187 108.577 40.5968C108.358 40.675 108.125 40.7076 107.893 40.6927Z" fill="white"/>
<path d="M113.571 40.6926C113.365 40.7027 113.16 40.6682 112.968 40.5915C112.777 40.5148 112.604 40.3977 112.462 40.2482C112.166 39.8885 112.018 39.4296 112.048 38.9648V28.5943C112.048 27.5045 112.593 26.9596 113.681 26.9596C113.899 26.9451 114.118 26.9756 114.324 27.0492C114.53 27.1228 114.718 27.2379 114.878 27.3874C115.023 27.5511 115.134 27.7422 115.205 27.9493C115.276 28.1565 115.305 28.3758 115.291 28.5943V34.8253L120.78 27.9474C120.997 27.6516 121.264 27.3951 121.567 27.189C121.879 27.0207 122.231 26.9413 122.584 26.9596C122.777 26.9495 122.97 26.9826 123.149 27.0566C123.328 27.1307 123.488 27.2436 123.617 27.3874C123.882 27.7029 124.018 28.1066 123.998 28.5178V39.0413C123.998 40.1435 123.46 40.6946 122.384 40.6946C121.308 40.6946 120.77 40.1435 120.77 39.0413V32.8103L115.279 39.7068C115.056 39.9948 114.795 40.2501 114.501 40.4652C114.221 40.6311 113.897 40.7102 113.571 40.6926Z" fill="white"/>
</svg>
