<svg width="255" height="313" viewBox="0 0 255 313" fill="none" xmlns="http://www.w3.org/2000/svg">
<path d="M30.622 305.208C30.3326 310.291 27.5472 312.021 24.6769 311.734C21.8066 311.447 19.8595 310.032 17.8161 309.949L17.7304 309.993C15.6869 309.91 13.6298 311.209 10.7456 311.262C7.86141 311.315 5.22182 309.458 5.34538 304.367C5.70174 299.704 9.2736 299.505 12.528 294.111C15.3936 289.361 18.5468 289.883 18.5468 289.883L18.6304 289.887C18.6304 289.887 21.842 289.644 24.2868 294.588C27.0785 300.235 30.6447 300.53 30.622 305.208ZM13.4936 287.579C16.0499 287.489 18.0203 284.51 17.8944 280.926C17.7685 277.341 15.594 274.508 13.0376 274.598C10.4813 274.687 8.5109 277.666 8.63682 281.251C8.76273 284.835 10.9371 287.669 13.4936 287.579ZM23.1504 288.033C25.6133 288.813 28.4967 286.646 29.5903 283.192C30.6838 279.739 29.5738 276.307 27.1109 275.527C24.648 274.747 21.7647 276.914 20.6711 280.368C19.5775 283.821 20.6874 287.253 23.1504 288.033ZM34.8022 285.705C32.6575 285.026 30.1466 286.913 29.1942 289.921C28.2419 292.928 29.2085 295.917 31.3533 296.596C33.4981 297.275 36.009 295.388 36.9614 292.38C37.9138 289.373 36.9471 286.385 34.8022 285.705ZM9.02773 289.102C8.32218 286.027 5.97265 283.943 3.77983 284.446C1.587 284.949 0.381249 287.849 1.08679 290.924C1.79234 293.998 4.14196 296.083 6.33478 295.58C8.52752 295.077 9.73319 292.176 9.02773 289.102Z" fill="#EFE6CE"/>
<path d="M59.3952 178.212C57.15 182.782 53.9108 183.292 51.3787 181.91C48.8462 180.529 47.6036 178.467 45.7536 177.595L45.6578 177.602C43.8078 176.73 41.4069 177.127 38.7296 176.053C36.0522 174.979 34.3438 172.24 36.4388 167.6C38.5822 163.443 41.9499 164.65 47.0471 160.948C51.5355 157.688 54.2369 159.396 54.2369 159.396L54.3126 159.432C54.3126 159.432 57.3652 160.459 57.6928 165.965C58.0665 172.253 61.2366 173.913 59.3952 178.212ZM50.4791 155.307C52.8688 156.219 55.8432 154.242 57.1224 150.891C58.4017 147.54 57.5014 144.084 55.1117 143.172C52.722 142.259 49.7476 144.236 48.4684 147.587C47.1891 150.938 48.0893 154.394 50.4791 155.307ZM59.1976 159.484C61.1627 161.161 64.6622 160.287 67.0138 157.531C69.3653 154.776 69.6786 151.182 67.7135 149.505C65.7484 147.828 62.2489 148.702 59.8974 151.458C57.5459 154.213 57.2325 157.807 59.1976 159.484ZM70.8366 161.875C69.1254 160.414 66.0779 161.175 64.0301 163.575C61.9823 165.974 61.7095 169.103 63.4208 170.564C65.1321 172.024 68.1795 171.263 70.2274 168.864C72.2752 166.464 72.548 163.335 70.8366 161.875ZM45.7726 154.971C46.3194 151.865 44.9665 149.03 42.7508 148.64C40.535 148.25 38.2955 150.452 37.7486 153.559C37.2019 156.666 38.5548 159.5 40.7706 159.89C42.9862 160.28 45.2257 158.078 45.7726 154.971Z" fill="#EFE6CE"/>
<path d="M141.689 67.667C138.657 71.7578 135.379 71.6759 133.137 69.8607C130.895 68.046 130.044 65.7944 128.381 64.6036L128.286 64.5929C126.623 63.4022 124.19 63.3598 121.75 61.8215C119.309 60.2831 118.122 57.2816 121.019 53.0941C123.876 49.3911 126.971 51.1848 132.651 48.4614C137.653 46.0632 140.003 48.2297 140.003 48.2297L140.071 48.2784C140.071 48.2784 142.889 49.8382 142.22 55.3131C141.455 61.5658 144.274 63.7694 141.689 67.667ZM137.043 43.5303C139.23 44.8581 142.511 43.4492 144.373 40.3833C146.235 37.3175 145.972 33.7557 143.785 32.4279C141.599 31.1002 138.317 32.5092 136.456 35.575C134.594 38.6408 134.857 42.2026 137.043 43.5303ZM144.867 49.2092C146.498 51.2127 150.098 50.9832 152.907 48.6962C155.716 46.4093 156.672 42.9311 155.041 40.9275C153.41 38.924 149.81 39.1535 147.001 41.4405C144.191 43.7274 143.236 47.2056 144.867 49.2092ZM155.885 53.6572C154.465 51.9124 151.33 52.1122 148.884 54.1038C146.437 56.0953 145.605 59.1241 147.026 60.8689C148.446 62.6137 151.581 62.4138 154.027 60.4223C156.474 58.4309 157.305 55.402 155.885 53.6572ZM132.474 42.3529C133.571 39.3954 132.751 36.3634 130.642 35.5808C128.533 34.7981 125.933 36.5611 124.836 39.5186C123.738 42.4761 124.559 45.5081 126.668 46.2908C128.777 47.0735 131.377 45.3104 132.474 42.3529Z" fill="#EFE6CE"/>
<path d="M36.8285 249.877C35.5714 254.811 32.5062 255.976 29.7441 255.145C26.9817 254.314 25.3415 252.552 23.3517 252.08L23.2594 252.106C21.2696 251.633 19.0016 252.515 16.1607 252.015C13.3197 251.515 11.0845 249.186 12.1801 244.214C13.4226 239.705 16.9665 240.193 21.1933 235.522C24.9151 231.409 27.9101 232.525 27.9101 232.525L27.9915 232.544C27.9915 232.544 31.19 232.921 32.6432 238.242C34.3024 244.319 37.7461 245.291 36.8285 249.877ZM23.3914 229.296C25.9177 229.697 28.4218 227.15 28.9844 223.608C29.547 220.065 27.9551 216.868 25.4288 216.467C22.9025 216.066 20.3984 218.612 19.8358 222.155C19.2732 225.697 20.8651 228.894 23.3914 229.296ZM32.7827 231.59C35.0508 232.827 38.2957 231.252 40.0302 228.071C41.7646 224.891 41.332 221.31 39.064 220.073C36.7959 218.836 33.551 220.411 31.8166 223.592C30.0821 226.772 30.5146 230.353 32.7827 231.59ZM44.6646 231.536C42.6896 230.458 39.8639 231.83 38.3534 234.6C36.843 237.369 37.2197 240.487 39.1948 241.564C41.17 242.642 43.9956 241.27 45.5061 238.501C47.0165 235.731 46.6399 232.613 44.6646 231.536ZM18.7166 229.935C18.6126 226.783 16.7056 224.287 14.457 224.361C12.2084 224.435 10.4698 227.051 10.5737 230.204C10.6777 233.357 12.5848 235.852 14.8334 235.778C17.0819 235.704 18.8205 233.088 18.7166 229.935Z" fill="#EFE6CE"/>
<path d="M86.6472 129.66C83.5688 133.716 80.2918 133.596 78.0711 131.755C75.8499 129.915 75.0248 127.654 73.3759 126.444L73.2806 126.432C71.6317 125.222 69.1994 125.152 66.7771 123.585C64.3547 122.019 63.2022 119.004 66.1468 114.85C69.0463 111.18 72.1206 113.01 77.8322 110.352C82.8616 108.012 85.1861 110.205 85.1861 110.205L85.2536 110.254C85.2536 110.254 88.0532 111.847 87.3208 117.313C86.4838 123.557 89.2776 125.793 86.6472 129.66ZM82.2806 105.472C84.4515 106.825 87.7493 105.454 89.6464 102.41C91.5434 99.3654 91.3214 95.8008 89.1505 94.4479C86.9796 93.0951 83.6818 94.4661 81.7848 97.5102C79.8877 100.554 80.1096 104.119 82.2806 105.472ZM90.0383 111.24C91.6461 113.263 95.2482 113.075 98.0838 110.82C100.919 108.566 101.915 105.099 100.307 103.077C98.6991 101.055 95.097 101.243 92.2615 103.497C89.426 105.751 88.4306 109.218 90.0383 111.24ZM101.004 115.815C99.6044 114.054 96.4676 114.218 93.9983 116.181C91.5291 118.144 90.6624 121.163 92.0624 122.924C93.4625 124.685 96.5992 124.522 99.0686 122.559C101.538 120.595 102.405 117.576 101.004 115.815ZM77.7254 104.242C78.8567 101.297 78.0715 98.2559 75.9714 97.4489C73.8713 96.6419 71.2515 98.3749 70.1201 101.32C68.9888 104.264 69.7741 107.305 71.8742 108.112C73.9742 108.919 76.5939 107.186 77.7254 104.242Z" fill="#EFE6CE"/>
<path d="M183.306 40.9852C178.678 43.1085 175.846 41.4568 174.756 38.7858C173.666 36.115 174.006 33.732 173.123 31.8873L173.044 31.8319C172.161 29.9872 170.05 28.7774 168.653 26.2534C167.257 23.7294 167.663 20.5273 172.219 18.2544C176.507 16.3868 178.355 19.4503 184.645 19.802C190.183 20.1116 191.198 23.1423 191.198 23.1423L191.234 23.2178C191.234 23.2178 192.951 25.9425 189.726 30.417C186.042 35.5268 187.45 38.8165 183.306 40.9852ZM190.869 17.5982C192.145 19.8153 195.699 20.1626 198.808 18.3736C201.917 16.5848 203.404 13.3372 202.128 11.1201C200.852 8.90296 197.298 8.55572 194.189 10.3446C191.08 12.1335 189.594 15.381 190.869 17.5982ZM194.987 26.3447C195.451 28.8863 198.715 30.4202 202.279 29.7704C205.843 29.1206 208.356 26.5335 207.893 23.992C207.43 21.4504 204.165 19.9166 200.601 20.5664C197.037 21.2161 194.524 23.8031 194.987 26.3447ZM202.497 35.5525C202.094 33.3392 199.251 32.0034 196.148 32.5693C193.044 33.1351 190.856 35.388 191.259 37.6012C191.663 39.8145 194.505 41.1502 197.609 40.5845C200.712 40.0188 202.901 37.7659 202.497 35.5525ZM187.433 14.3643C189.82 12.3019 190.563 9.24999 189.092 7.54759C187.621 5.8452 184.494 6.13701 182.107 8.19942C179.72 10.2618 178.977 13.3138 180.448 15.0162C181.919 16.7186 185.046 16.4267 187.433 14.3643Z" fill="#EFE6CE"/>
<path d="M81.5835 234.245C80.2445 239.157 77.1604 240.271 74.4125 239.394C71.6642 238.517 70.0536 236.729 68.072 236.223L67.9792 236.248C65.9975 235.742 63.7152 236.586 60.883 236.039C58.0507 235.491 55.8546 233.126 57.0327 228.173C58.35 223.685 61.8853 224.232 66.1892 219.632C69.9789 215.581 72.955 216.746 72.955 216.746L73.036 216.767C73.036 216.767 76.2279 217.197 77.5923 222.541C79.1502 228.645 82.5773 229.674 81.5835 234.245ZM68.4906 213.443C71.0098 213.886 73.556 211.381 74.1774 207.849C74.7989 204.316 73.2603 201.093 70.7411 200.65C68.2218 200.207 65.6757 202.711 65.0542 206.244C64.4328 209.776 65.9713 212.999 68.4906 213.443ZM77.8424 215.893C80.0896 217.167 83.3603 215.646 85.1474 212.495C86.9345 209.344 86.5615 205.757 84.3144 204.482C82.0672 203.208 78.7966 204.729 77.0095 207.88C75.2224 211.03 75.5952 214.618 77.8424 215.893ZM89.7236 216.036C87.7668 214.926 84.9186 216.251 83.3623 218.995C81.8061 221.739 82.1309 224.863 84.0877 225.973C86.0447 227.083 88.8928 225.758 90.4491 223.014C92.0054 220.27 91.6807 217.146 89.7236 216.036ZM63.8058 214.005C63.7543 210.851 61.889 208.324 59.6395 208.36C57.39 208.397 55.6081 210.984 55.6596 214.138C55.7111 217.292 57.5764 219.819 59.8259 219.782C62.0753 219.746 63.8572 217.159 63.8058 214.005Z" fill="#EFE6CE"/>
<path d="M133.957 132.68C130.811 136.684 127.537 136.51 125.347 134.632C123.156 132.755 122.369 130.48 120.741 129.243L120.646 129.23C119.017 127.993 116.586 127.882 114.19 126.275C111.794 124.669 110.692 121.635 113.705 117.531C116.665 113.91 119.709 115.79 125.464 113.228C130.531 110.971 132.819 113.203 132.819 113.203L132.886 113.254C132.886 113.254 135.659 114.892 134.835 120.346C133.895 126.575 136.651 128.857 133.957 132.68ZM129.993 108.422C132.141 109.811 135.461 108.495 137.409 105.483C139.356 102.471 139.193 98.9027 137.045 97.514C134.897 96.1252 131.577 97.4412 129.629 100.453C127.682 103.465 127.845 107.033 129.993 108.422ZM137.654 114.319C139.227 116.368 142.832 116.24 145.705 114.033C148.577 111.826 149.63 108.376 148.056 106.327C146.483 104.278 142.878 104.407 140.005 106.614C137.133 108.82 136.08 112.27 137.654 114.319ZM148.542 119.076C147.171 117.291 144.032 117.403 141.531 119.325C139.029 121.247 138.112 124.251 139.483 126.035C140.854 127.819 143.993 127.707 146.494 125.786C148.996 123.864 149.913 120.86 148.542 119.076ZM125.459 107.116C126.639 104.191 125.904 101.137 123.818 100.295C121.732 99.4536 119.083 101.143 117.903 104.068C116.723 106.993 117.458 110.047 119.544 110.889C121.63 111.731 124.278 110.042 125.459 107.116Z" fill="#EFE6CE"/>
<path d="M223.818 67.2445C218.978 68.8243 216.353 66.8593 215.576 64.0812C214.799 61.3033 215.409 58.9748 214.742 57.0411L214.671 56.9772C214.005 55.0435 212.046 53.6001 210.947 50.9329C209.848 48.2656 210.619 45.1311 215.405 43.3944C219.878 42.0297 221.363 45.2844 227.571 46.3535C233.038 47.2947 233.699 50.4217 233.699 50.4217L233.727 50.5007C233.727 50.5007 235.121 53.4041 231.405 57.4801C227.16 62.1349 228.183 65.5641 223.818 67.2445ZM234.007 44.8764C235.021 47.2249 238.512 47.9765 241.806 46.5551C245.099 45.1337 246.947 42.0775 245.933 39.7289C244.92 37.3804 241.428 36.6288 238.135 38.0502C234.842 39.4716 232.994 42.5278 234.007 44.8764ZM237.098 54.0366C237.267 56.6146 240.335 58.5118 243.949 58.2741C247.564 58.0363 250.357 55.7538 250.188 53.176C250.018 50.598 246.95 48.7007 243.336 48.9385C239.721 49.1762 236.928 51.4587 237.098 54.0366ZM243.505 64.0432C243.357 61.7983 240.686 60.146 237.538 60.3531C234.39 60.5601 231.958 62.5477 232.106 64.7926C232.253 67.0376 234.925 68.6898 238.073 68.4828C241.22 68.2759 243.652 66.2882 243.505 64.0432ZM230.964 41.2706C233.571 39.4949 234.658 36.5479 233.392 34.6884C232.125 32.8289 228.985 32.761 226.378 34.5368C223.771 36.3125 222.684 39.2595 223.95 41.119C225.216 42.9784 228.357 43.0463 230.964 41.2706Z" fill="#EFE6CE"/>
<path d="M70.0767 286.444C68.7377 291.356 65.6536 292.47 62.9056 291.593C60.1574 290.717 58.5468 288.928 56.5651 288.422L56.4724 288.447C54.4907 287.941 52.2084 288.785 49.3762 288.238C46.5438 287.691 44.3477 285.325 45.5259 280.372C46.8432 275.884 50.3785 276.431 54.6824 271.831C58.4721 267.78 61.4481 268.946 61.4481 268.946L61.5291 268.966C61.5291 268.966 64.721 269.396 66.0855 274.741C67.6434 280.844 71.0705 281.874 70.0767 286.444ZM56.9838 265.642C59.503 266.085 62.0491 263.581 62.6706 260.048C63.292 256.515 61.7535 253.292 59.2342 252.849C56.715 252.406 54.1688 254.91 53.5474 258.443C52.926 261.976 54.4644 265.199 56.9838 265.642ZM66.3356 268.092C68.5828 269.367 71.8534 267.846 73.6406 264.695C75.4276 261.544 75.0547 257.956 72.8076 256.681C70.5604 255.407 67.2897 256.928 65.5027 260.079C63.7155 263.23 64.0884 266.817 66.3356 268.092ZM78.2168 268.235C76.2599 267.125 73.4118 268.45 71.8555 271.194C70.2992 273.938 70.624 277.062 72.5809 278.172C74.5379 279.282 77.3859 277.957 78.9423 275.213C80.4986 272.47 80.1738 269.345 78.2168 268.235ZM52.299 266.204C52.2474 263.05 50.3822 260.523 48.1327 260.559C45.8832 260.596 44.1012 263.183 44.1527 266.337C44.2042 269.491 46.0696 272.018 48.3191 271.981C50.5685 271.945 52.3504 269.358 52.299 266.204Z" fill="#EFE6CE"/>
<path d="M103.041 176.283C99.8951 180.287 96.6206 180.113 94.4308 178.235C92.2404 176.358 91.4531 174.084 89.8245 172.847L89.7295 172.833C88.1009 171.596 85.6701 171.485 83.2742 169.879C80.8782 168.272 79.776 165.238 82.7892 161.134C85.7494 157.513 88.7928 159.393 94.5479 156.831C99.6155 154.575 101.903 156.806 101.903 156.806L101.97 156.857C101.97 156.857 104.743 158.496 103.919 163.949C102.979 170.178 105.735 172.46 103.041 176.283ZM99.0768 152.026C101.225 153.414 104.545 152.098 106.493 149.086C108.44 146.074 108.277 142.506 106.129 141.117C103.981 139.729 100.661 141.045 98.7135 144.057C96.766 147.069 96.9287 150.637 99.0768 152.026ZM106.738 157.922C108.311 159.971 111.916 159.843 114.789 157.636C117.661 155.429 118.714 151.979 117.14 149.931C115.567 147.882 111.962 148.01 109.089 150.217C106.217 152.424 105.164 155.874 106.738 157.922ZM117.626 162.679C116.255 160.895 113.116 161.006 110.615 162.928C108.113 164.85 107.196 167.854 108.567 169.638C109.938 171.422 113.077 171.311 115.578 169.389C118.08 167.467 118.997 164.463 117.626 162.679ZM94.5427 150.72C95.7229 147.795 94.9883 144.741 92.9019 143.899C90.8155 143.057 88.1673 144.746 86.9871 147.672C85.8069 150.597 86.5415 153.651 88.6279 154.493C90.7142 155.335 93.3623 153.645 94.5427 150.72Z" fill="#EFE6CE"/>
<path d="M176.684 87.5806C172.418 90.3603 169.373 89.1424 167.904 86.6603C166.433 84.1786 166.419 81.7715 165.275 80.0765L165.189 80.0332C164.045 78.3381 161.779 77.4514 160.027 75.1599C158.275 72.8682 158.207 69.6412 162.38 66.7239C166.347 64.2471 168.624 67.006 174.897 66.4305C180.421 65.9235 181.87 68.7724 181.87 68.7724L181.917 68.8417C181.917 68.8417 184.015 71.2849 181.482 76.1843C178.589 81.7797 180.464 84.827 176.684 87.5806ZM180.731 63.3366C182.319 65.3424 185.885 65.164 188.698 62.938C191.511 60.712 192.504 57.2814 190.917 55.2757C189.329 53.2699 185.762 53.4483 182.95 55.6743C180.137 57.9002 179.144 61.3308 180.731 63.3366ZM186.089 71.3837C186.92 73.8298 190.375 74.8676 193.804 73.7017C197.234 72.5357 199.34 69.6076 198.509 67.1617C197.677 64.7156 194.223 63.6778 190.793 64.8438C187.364 66.0096 185.257 68.9377 186.089 71.3837ZM194.869 79.3891C194.145 77.259 191.137 76.3551 188.15 77.3705C185.164 78.3858 183.33 80.9356 184.054 83.0656C184.778 85.1957 187.786 86.0995 190.773 85.0842C193.759 84.069 195.593 81.5192 194.869 79.3891ZM176.858 60.6422C178.916 58.2518 179.202 55.1239 177.497 53.6559C175.793 52.1879 172.742 52.9357 170.684 55.3262C168.625 57.7167 168.339 60.8447 170.044 62.3127C171.749 63.7806 174.799 63.0327 176.858 60.6422Z" fill="#EFE6CE"/>
</svg>
