<svg width="358" height="313" viewBox="0 0 358 313" fill="none" xmlns="http://www.w3.org/2000/svg">
<path d="M53.0002 31.4298C48.0856 30.0991 46.9663 27.0169 47.839 24.2675C48.7109 21.5178 50.4971 19.9042 50.9994 17.9216L50.9747 17.8289C51.477 15.8464 50.6291 13.5655 51.1716 10.7324C51.7141 7.89916 54.0759 5.69907 59.0313 6.86893C63.5212 8.17867 62.9798 11.7149 67.5873 16.011C71.6445 19.7939 70.4841 22.7719 70.4841 22.7719L70.4636 22.853C70.4636 22.853 70.0389 26.0456 64.6969 27.419C58.5959 28.9871 57.5723 32.416 53.0002 31.4298ZM73.7804 18.302C73.3415 20.822 75.8502 23.3639 79.3839 23.9795C82.9175 24.595 86.1381 23.051 86.577 20.531C87.016 18.011 84.5072 15.4691 80.9736 14.8536C77.4399 14.2381 74.2194 15.782 73.7804 18.302ZM71.3459 27.658C70.0751 29.9073 71.6017 33.1754 74.7557 34.9572C77.9096 36.739 81.4967 36.36 82.7674 34.1108C84.0382 31.8614 82.5117 28.5933 79.3577 26.8116C76.2038 25.0298 72.6167 25.4086 71.3459 27.658ZM71.2224 39.5394C72.3291 37.5807 70.9999 34.7347 68.2533 33.1831C65.5067 31.6314 62.3832 31.9614 61.2765 33.9202C60.1699 35.879 61.4992 38.7249 64.2457 40.2766C66.9921 41.8283 70.1158 41.4983 71.2224 39.5394ZM73.2105 13.6182C76.3644 13.5614 78.8884 11.6919 78.848 9.44242C78.8075 7.19298 76.2179 5.41539 73.0639 5.47218C69.9099 5.52899 67.3859 7.39858 67.4263 9.64802C67.4667 11.8974 70.0564 13.6749 73.2105 13.6182Z" fill="#EFE6CE"/>
<path d="M171.341 85.7558C167.332 82.6171 167.501 79.3423 169.375 77.1493C171.248 74.9559 173.521 74.1648 174.756 72.5341L174.769 72.439C176.003 70.8084 176.11 68.3774 177.713 65.9788C179.315 63.5801 182.347 62.4728 186.456 65.4792C190.082 68.4332 188.207 71.4798 190.779 77.2305C193.044 82.2943 190.816 84.5858 190.816 84.5858L190.766 84.6525C190.766 84.6525 189.132 87.428 183.677 86.614C177.446 85.6837 175.169 88.4437 171.341 85.7558ZM195.592 81.7514C194.207 83.9018 195.529 87.2197 198.544 89.1621C201.56 91.1045 205.127 90.9358 206.512 88.7854C207.897 86.635 206.576 83.317 203.56 81.3747C200.545 79.4323 196.978 79.6009 195.592 81.7514ZM189.708 89.422C187.662 90.9993 187.796 94.6039 190.008 97.4728C192.22 100.342 195.671 101.389 197.717 99.8115C199.764 98.2341 199.629 94.6296 197.418 91.7608C195.206 88.8919 191.754 87.8447 189.708 89.422ZM184.97 100.318C186.752 98.9449 186.635 95.806 184.709 93.3077C182.783 90.8093 179.777 89.8976 177.995 91.2711C176.214 92.6447 176.33 95.7836 178.256 98.282C180.182 100.78 183.188 101.692 184.97 100.318ZM196.89 77.2151C199.818 78.3903 202.87 77.6507 203.709 75.5629C204.547 73.4751 202.853 70.8297 199.926 69.6544C196.999 68.4791 193.946 69.2189 193.108 71.3067C192.269 73.3944 193.963 76.0397 196.89 77.2151Z" fill="#EFE6CE"/>
<path d="M262.554 189.063C259.176 185.254 259.931 182.063 262.17 180.243C264.408 178.423 266.786 178.054 268.294 176.673L268.324 176.582C269.832 175.2 270.375 172.828 272.383 170.757C274.391 168.686 277.573 168.143 281.074 171.84C284.109 175.399 281.715 178.058 283.21 184.178C284.526 189.567 281.921 191.42 281.921 191.42L281.86 191.476C281.86 191.476 279.753 193.912 274.533 192.129C268.573 190.092 265.835 192.397 262.554 189.063ZM287.13 189.492C285.38 191.358 286.083 194.859 288.699 197.313C291.315 199.767 294.855 200.243 296.605 198.377C298.354 196.511 297.652 193.01 295.036 190.556C292.419 188.103 288.88 187.626 287.13 189.492ZM279.961 195.977C277.664 197.16 277.147 200.73 278.806 203.95C280.465 207.171 283.671 208.822 285.968 207.639C288.265 206.456 288.782 202.886 287.123 199.666C285.464 196.446 282.257 194.794 279.961 195.977ZM273.338 205.842C275.338 204.812 275.788 201.703 274.343 198.899C272.899 196.095 270.106 194.657 268.106 195.687C266.106 196.717 265.656 199.826 267.101 202.63C268.545 205.434 271.337 206.873 273.338 205.842ZM289.224 185.263C291.892 186.947 295.028 186.769 296.228 184.866C297.429 182.963 296.239 180.056 293.571 178.373C290.903 176.69 287.767 176.868 286.567 178.77C285.366 180.673 286.556 183.58 289.224 185.263Z" fill="#EFE6CE"/>
<path d="M105.864 48.9041C101.295 46.6572 100.787 43.4177 102.17 40.8862C103.552 38.3543 105.614 37.1124 106.486 35.2627L106.48 35.167C107.352 33.3173 106.957 30.9163 108.031 28.2394C109.106 25.5624 111.846 23.8551 116.485 25.9519C120.641 28.0969 119.433 31.464 123.133 36.5627C126.391 41.0524 124.682 43.7531 124.682 43.7531L124.647 43.8288C124.647 43.8288 123.619 46.881 118.113 47.2065C111.824 47.5777 110.163 50.7472 105.864 48.9041ZM128.773 39.9969C127.86 42.3863 129.836 45.3614 133.186 46.642C136.537 47.9225 139.993 47.0236 140.906 44.6342C141.82 42.2449 139.844 39.2697 136.493 37.9892C133.143 36.7086 129.686 37.6074 128.773 39.9969ZM124.593 48.7138C122.915 50.6783 123.788 54.1781 126.542 56.5308C129.297 58.8833 132.89 59.198 134.568 57.2336C136.246 55.2691 135.373 51.7693 132.618 49.4167C129.864 47.0641 126.271 46.7493 124.593 48.7138ZM122.197 60.3519C123.658 58.6412 122.899 55.5935 120.5 53.5447C118.101 51.496 114.972 51.222 113.511 52.9327C112.05 54.6435 112.81 57.6911 115.208 59.7399C117.607 61.7887 120.736 62.0627 122.197 60.3519ZM129.11 35.2905C132.217 35.8385 135.052 34.4868 135.443 32.2712C135.834 30.0556 133.632 27.8151 130.526 27.2671C127.419 26.7191 124.584 28.071 124.193 30.2866C123.802 32.5021 126.004 34.7424 129.11 35.2905Z" fill="#EFE6CE"/>
<path d="M213.234 122.428C209.9 118.58 210.692 115.398 212.951 113.604C215.21 111.81 217.592 111.468 219.116 110.104L219.147 110.013C220.671 108.649 221.241 106.284 223.273 104.236C225.305 102.189 228.493 101.682 231.951 105.419C234.944 109.013 232.521 111.644 233.944 117.781C235.198 123.185 232.572 125.007 232.572 125.007L232.51 125.063C232.51 125.063 230.375 127.475 225.177 125.631C219.24 123.526 216.476 125.799 213.234 122.428ZM237.803 123.14C236.032 124.985 236.694 128.495 239.282 130.978C241.869 133.462 245.403 133.979 247.174 132.134C248.946 130.288 248.284 126.779 245.696 124.295C243.108 121.811 239.574 121.294 237.803 123.14ZM230.559 129.542C228.249 130.699 227.691 134.262 229.312 137.501C230.934 140.741 234.122 142.429 236.432 141.273C238.742 140.116 239.3 136.553 237.678 133.313C236.057 130.074 232.87 128.386 230.559 129.542ZM223.823 139.33C225.835 138.323 226.321 135.22 224.909 132.399C223.496 129.578 220.721 128.108 218.709 129.115C216.697 130.122 216.211 133.225 217.623 136.046C219.035 138.867 221.811 140.337 223.823 139.33ZM239.945 118.936C242.594 120.65 245.731 120.508 246.954 118.619C248.176 116.73 247.02 113.81 244.372 112.096C241.724 110.382 238.586 110.524 237.364 112.412C236.141 114.301 237.297 117.222 239.945 118.936Z" fill="#EFE6CE"/>
<path d="M280.086 235.286C278.962 230.32 281.162 227.888 284.001 227.373C286.839 226.857 289.101 227.68 291.088 227.196L291.158 227.131C293.145 226.647 294.764 224.83 297.522 223.984C300.279 223.137 303.329 224.195 304.614 229.121C305.558 233.702 302.179 234.879 300.539 240.961C299.095 246.317 295.92 246.685 295.92 246.685L295.839 246.705C295.839 246.705 292.819 247.824 289.105 243.746C284.864 239.088 281.355 239.788 280.086 235.286ZM301.413 247.506C298.98 248.298 297.908 251.704 299.018 255.115C300.128 258.526 302.999 260.65 305.432 259.858C307.864 259.067 308.936 255.66 307.827 252.249C306.717 248.838 303.845 246.715 301.413 247.506ZM292.005 249.733C289.423 249.663 287.249 252.541 287.151 256.163C287.052 259.784 289.066 262.776 291.648 262.847C294.231 262.917 296.404 260.039 296.503 256.417C296.601 252.796 294.588 249.804 292.005 249.733ZM281.448 255.185C283.697 255.246 285.589 252.739 285.675 249.586C285.761 246.433 284.008 243.827 281.759 243.765C279.51 243.704 277.617 246.211 277.531 249.364C277.445 252.517 279.199 255.123 281.448 255.185ZM305.285 244.811C306.812 247.571 309.645 248.927 311.614 247.838C313.583 246.75 313.942 243.629 312.416 240.869C310.889 238.108 308.056 236.752 306.087 237.841C304.118 238.929 303.759 242.05 305.285 244.811Z" fill="#EFE6CE"/>
<path d="M111.939 95.9207C107.408 93.5981 106.953 90.3506 108.378 87.8424C109.802 85.3339 111.884 84.1265 112.787 82.2915L112.782 82.1957C113.685 80.3607 113.33 77.9535 114.449 75.2948C115.568 72.6361 118.336 70.9746 122.94 73.1483C127.06 75.3621 125.796 78.7087 129.41 83.8682C132.593 88.4114 130.84 91.0834 130.84 91.0834L130.803 91.1584C130.803 91.1584 129.724 94.1932 124.213 94.427C117.92 94.6936 116.206 97.835 111.939 95.9207ZM134.992 87.3957C134.04 89.7696 135.966 92.7771 139.294 94.1133C142.623 95.4494 146.094 94.6081 147.047 92.2342C148 89.8604 146.074 86.8528 142.745 85.5167C139.416 84.1806 135.945 85.0218 134.992 87.3957ZM130.668 96.0419C128.957 97.9782 129.772 101.492 132.487 103.89C135.202 106.288 138.789 106.663 140.5 104.726C142.21 102.79 141.396 99.2763 138.68 96.8782C135.965 94.4801 132.378 94.1056 130.668 96.0419ZM128.079 107.639C129.568 105.952 128.859 102.892 126.495 100.804C124.13 98.7158 121.006 98.3898 119.517 100.076C118.028 101.762 118.737 104.822 121.101 106.91C123.465 108.999 126.589 109.325 128.079 107.639ZM135.408 82.6956C138.505 83.2952 141.362 81.9908 141.79 79.782C142.217 77.5732 140.053 75.2965 136.956 74.6969C133.86 74.0973 131.002 75.4018 130.574 77.6106C130.147 79.8193 132.311 82.0959 135.408 82.6956Z" fill="#EFE6CE"/>
<path d="M200.53 168.099C197.26 164.196 198.105 161.028 200.394 159.272C202.682 157.515 205.07 157.214 206.616 155.875L206.649 155.785C208.195 154.446 208.805 152.09 210.87 150.077C212.936 148.063 216.132 147.61 219.527 151.404C222.46 155.047 219.993 157.638 221.315 163.798C222.478 169.221 219.823 171 219.823 171L219.76 171.055C219.76 171.055 217.585 173.43 212.418 171.501C206.517 169.297 203.716 171.524 200.53 168.099ZM225.084 169.22C223.282 171.035 223.886 174.555 226.432 177.082C228.978 179.608 232.503 180.184 234.304 178.368C236.106 176.553 235.502 173.033 232.956 170.506C230.41 167.98 226.885 167.404 225.084 169.22ZM217.735 175.501C215.406 176.619 214.788 180.172 216.356 183.438C217.923 186.704 221.082 188.445 223.411 187.327C225.74 186.209 226.358 182.655 224.79 179.39C223.223 176.124 220.064 174.383 217.735 175.501ZM210.836 185.175C212.865 184.202 213.402 181.107 212.037 178.263C210.672 175.419 207.921 173.903 205.893 174.876C203.865 175.85 203.327 178.945 204.692 181.789C206.057 184.632 208.808 186.149 210.836 185.175ZM227.296 165.052C229.915 166.809 233.055 166.72 234.308 164.852C235.562 162.984 234.455 160.044 231.836 158.287C229.216 156.529 226.076 156.618 224.823 158.486C223.569 160.355 224.676 163.294 227.296 165.052Z" fill="#EFE6CE"/>
<path d="M246.042 269.518C245.494 264.456 247.957 262.292 250.836 262.105C253.714 261.916 255.867 262.993 257.897 262.74L257.974 262.683C260.003 262.43 261.82 260.81 264.656 260.285C267.492 259.759 270.401 261.159 271.114 266.2C271.527 270.859 268.037 271.641 265.711 277.496C263.663 282.651 260.467 282.654 260.467 282.654L260.384 282.664C260.384 282.664 257.256 283.43 254.033 278.954C250.353 273.841 246.787 274.135 246.042 269.518ZM265.83 284.098C263.323 284.606 261.868 287.867 262.58 291.383C263.293 294.898 265.902 297.337 268.409 296.829C270.916 296.321 272.372 293.059 271.659 289.544C270.947 286.028 268.337 283.59 265.83 284.098ZM256.23 285.234C253.672 284.869 251.183 287.48 250.671 291.066C250.159 294.652 251.817 297.855 254.374 298.221C256.932 298.586 259.421 295.975 259.933 292.389C260.445 288.803 258.787 285.6 256.23 285.234ZM245.118 289.442C247.345 289.76 249.512 287.486 249.958 284.364C250.404 281.241 248.96 278.451 246.733 278.133C244.506 277.815 242.339 280.088 241.893 283.211C241.447 286.334 242.89 289.124 245.118 289.442ZM269.986 281.863C271.186 284.78 273.846 286.451 275.926 285.595C278.007 284.739 278.721 281.68 277.52 278.763C276.32 275.846 273.66 274.175 271.58 275.031C269.499 275.887 268.785 278.946 269.986 281.863Z" fill="#EFE6CE"/>
<path d="M63.2305 73.9031C58.6996 71.5805 58.2449 68.333 59.6696 65.8249C61.0938 63.3163 63.1762 62.1089 64.0793 60.274L64.0743 60.1781C64.9775 58.3432 64.6219 55.9359 65.7411 53.2773C66.8603 50.6185 69.6276 48.957 74.2318 51.1307C78.3517 53.3445 77.0876 56.6911 80.7022 61.8507C83.8852 66.3939 82.1315 69.0658 82.1315 69.0658L82.0946 69.1409C82.0946 69.1409 81.0159 72.1756 75.5053 72.4095C69.2116 72.6761 67.498 75.8175 63.2305 73.9031ZM86.2844 65.3781C85.3316 67.752 87.2575 70.7596 90.5863 72.0957C93.915 73.4318 97.386 72.5905 98.3388 70.2167C99.2917 67.8428 97.3656 64.8352 94.0369 63.4991C90.7082 62.163 87.2372 63.0042 86.2844 65.3781ZM81.9596 74.0243C80.2493 75.9606 81.0637 79.4745 83.7787 81.8726C86.4938 84.2707 90.0813 84.6451 91.7916 82.7089C93.5019 80.7726 92.6875 77.2587 89.9724 74.8606C87.2574 72.4625 83.6699 72.088 81.9596 74.0243ZM79.3708 85.6209C80.8602 83.9348 80.1511 80.8748 77.7867 78.7865C75.4224 76.6982 72.2984 76.3722 70.809 78.0583C69.3196 79.7445 70.0288 82.8044 72.3931 84.8929C74.7573 86.9812 77.8813 87.3072 79.3708 85.6209ZM86.6998 60.6781C89.7967 61.2776 92.654 59.9732 93.0817 57.7644C93.5094 55.5556 91.3455 53.2789 88.2485 52.6793C85.1515 52.0797 82.2942 53.3842 81.8665 55.593C81.4388 57.8017 83.6027 60.0784 86.6998 60.6781Z" fill="#EFE6CE"/>
<path d="M164.234 128.863C160.964 124.96 161.809 121.791 164.098 120.036C166.386 118.279 168.774 117.977 170.32 116.639L170.353 116.549C171.899 115.21 172.509 112.854 174.574 110.841C176.64 108.827 179.836 108.374 183.231 112.168C186.164 115.811 183.697 118.402 185.019 124.561C186.182 129.985 183.527 131.764 183.527 131.764L183.464 131.818C183.464 131.818 181.289 134.194 176.122 132.265C170.221 130.06 167.42 132.287 164.234 128.863ZM188.788 129.983C186.986 131.799 187.59 135.319 190.136 137.845C192.682 140.372 196.207 140.948 198.008 139.132C199.81 137.316 199.207 133.796 196.66 131.27C194.114 128.743 190.59 128.167 188.788 129.983ZM181.439 136.264C179.11 137.382 178.492 140.936 180.06 144.202C181.627 147.467 184.786 149.209 187.115 148.091C189.444 146.973 190.062 143.419 188.494 140.153C186.927 136.888 183.768 135.146 181.439 136.264ZM174.54 145.939C176.569 144.965 177.106 141.871 175.741 139.027C174.376 136.183 171.626 134.667 169.597 135.64C167.569 136.614 167.031 139.708 168.396 142.552C169.761 145.396 172.512 146.912 174.54 145.939ZM191 125.815C193.619 127.573 196.759 127.484 198.013 125.616C199.266 123.747 198.159 120.808 195.54 119.05C192.92 117.293 189.781 117.382 188.527 119.25C187.273 121.118 188.38 124.058 191 125.815Z" fill="#EFE6CE"/>
<path d="M235.856 219.204C234.015 214.456 235.834 211.728 238.566 210.801C241.298 209.874 243.656 210.356 245.55 209.586L245.61 209.511C247.505 208.741 248.84 206.706 251.443 205.464C254.046 204.222 257.218 204.82 259.213 209.504C260.819 213.897 257.65 215.557 256.92 221.814C256.278 227.324 253.192 228.154 253.192 228.154L253.114 228.186C253.114 228.186 250.291 229.736 246.019 226.247C241.14 222.263 237.772 223.47 235.856 219.204ZM258.746 228.16C256.456 229.3 255.895 232.827 257.494 236.038C259.092 239.249 262.245 240.928 264.535 239.788C266.824 238.648 267.385 235.121 265.786 231.91C264.188 228.699 261.036 227.02 258.746 228.16ZM249.767 231.744C247.202 232.054 245.475 235.22 245.909 238.817C246.343 242.413 248.774 245.078 251.339 244.768C253.904 244.459 255.631 241.292 255.197 237.696C254.763 234.099 252.332 231.435 249.767 231.744ZM240.124 238.687C242.358 238.417 243.862 235.66 243.484 232.528C243.106 229.396 240.989 227.076 238.755 227.346C236.522 227.615 235.018 230.373 235.396 233.504C235.773 236.636 237.891 238.956 240.124 238.687ZM262.18 224.925C264.096 227.432 267.097 228.357 268.885 226.991C270.673 225.625 270.57 222.486 268.655 219.979C266.74 217.472 263.738 216.548 261.95 217.913C260.162 219.279 260.266 222.418 262.18 224.925Z" fill="#EFE6CE"/>
</svg>
